# AST/ASF file generated using VICON BodyLanguage
# -----------------------------------------------
:version 1.10
:name VICON
:units
  mass 1.0
  length 0.45
  angle deg
:documentation
   .ast/.asf automatically generated from VICON data using
   VICON BodyBuilder and BodyLanguage model FoxedUp or BRILLIANT.MOD
:root
   order TX TY TZ RX RY RZ
   axis XYZ
   position 0 0 0  
   orientation 0 0 0 
:bonedata
  begin
     id 1 
     name lhipjoint
     direction 0.645422 -0.672597 0.361999 
     length 2.39934 
     axis 0 0 0  XYZ
  end
  begin
     id 2 
     name lfemur
     direction 0.34202 -0.939693 0  
     length 6.58112  
     axis 0 0 20  XYZ
    dof rx ry rz
    limits (-160.0 20.0)
           (-70.0 70.0)
           (-60.0 70.0)
  end
  begin
     id 3 
     name ltibia
     direction 0.34202 -0.939693 0   
     length 7.02673   
     axis 0 0 20   XYZ
    dof rx
    limits (-10.0 170.0)
  end
  begin
     id 4 
     name lfoot
     direction 0.0835106 -0.229444 0.969733   
     length 2.08772   
     axis -90 7.62852e-016 20   XYZ
    dof rx rz
    limits (-45.0 90.0)
           (-70.0 20.0)
  end
  begin
     id 5 
     name ltoes
     direction 1.5358e-011 -4.21925e-011 1   
     length 1.04844   
     axis -90 7.62852e-016 20   XYZ
    dof rx
    limits (-90.0 20.0)
  end
  begin
     id 6 
     name rhipjoint
     direction -0.644959 -0.672941 0.362185   
     length 2.39812  
     axis 0 0 0  XYZ 
  end
  begin
     id 7 
     name rfemur
     direction -0.34202 -0.939693 0   
     length 6.67015   
     axis 0 0 -20   XYZ
    dof rx ry rz
    limits (-160.0 20.0)
           (-70.0 70.0)
           (-70.0 60.0)
  end
  begin
     id 8 
     name rtibia
     direction -0.34202 -0.939693 0   
     length 7.35735   
     axis 0 0 -20   XYZ
    dof rx
    limits (-10.0 170.0)
 end
 begin
     id 9 
     name rfoot
     direction -0.0670769 -0.184292 0.98058   
     length 2.25469  
     axis -90 -7.62852e-016 -20   XYZ
    dof rx rz
    limits (-45.0 90.0)
           (-20.0 70.0)
  end
  begin
     id 10 
     name rtoes
     direction -1.53575e-011 -4.21908e-011 1   
     length 1.13399   
     axis -90 -7.62852e-016 -20   XYZ
    dof rx
    limits (-90.0 20.0)
  end
  begin
     id 11 
     name lowerback
     direction -0.0188328 0.993434 -0.112847   
     length 2.27656   
     axis 0 0 0   XYZ
    dof rx ry rz
    limits (-20.0 45.0)
           (-30.0 30.0)
           (-30.0 30.0)
  end
  begin
     id 12 
     name upperback
     direction 0.00983139 0.998968 -0.04435   
     length 2.28631   
     axis 0 0 0   XYZ
    dof rx ry rz
    limits (-20.0 45.0)
           (-30.0 30.0)
           (-30.0 30.0)
  end
  begin
     id 13 
     name thorax
     direction 0.0177718 0.999807 0.00833073   
     length 2.30999   
     axis 0 0 0   XYZ
    dof rx ry rz
    limits (-20.0 45.0)
           (-30.0 30.0)
           (-30.0 30.0)
  end
  begin
     id 14 
     name lowerneck
     direction -0.0835025 0.993181 0.0813558   
     length 1.39447   
     axis 0 0 0   XYZ
    dof rx ry rz
    limits (-20.0 45.0)
           (-30.0 30.0)
           (-30.0 30.0)
  end
  begin
     id 15 
     name upperneck
     direction 0.210059 0.976535 0.0474817   
     length 1.39882   
     axis 0 0 0   XYZ
    dof rx ry rz
    limits (-20.0 45.0)
           (-30.0 30.0)
           (-30.0 30.0)
  end
  begin
     id 16
     name head
     direction 0.0780891 0.996944 -0.00207154  
     length 1.41828  
     axis 0 0 0   XYZ
    dof rx ry rz
    limits (-20.0 45.0)
           (-30.0 30.0)
           (-30.0 30.0)
  end
  begin
     id 17 
     name lclavicle
     direction 0.982414 0.166355 -0.0847829  
     length 3.57922  
     axis 0 0 0   XYZ
    dof ry rz
    limits (-20.0 10.0)
           (0.0 20.0)
  end
  begin
     id 18 
     name lhumerus
     direction 1 -4.48975e-011 5.47647e-028   
     length 4.76405   
     axis -180 -30 -90   XYZ
    dof rx ry rz
    limits (-60.0 90.0)
           (-90.0 90.0)
           (-90.0 90.0)
  end
  begin
     id 19
     name lradius
     direction 1 -4.48949e-011 -8.32142e-027   
     length 3.13759   
     axis -180 -30 -90   XYZ
    dof rx
    limits (-10.0 170.0)
  end
  begin
     id 20
     name lwrist
     direction 1 -4.48978e-011 -1.32705e-026   
     length 1.56879   
     axis 9.60836e-015 90 90   XYZ
    dof ry
    limits (-180.0 0.0)
 end
  begin
     id 21 
     name lhand
     direction 1 -4.48975e-011 -2.65409e-026   
     length 0.732262   
     axis 1.69354e-014 90 90   XYZ
    dof rx rz
    limits (-90.0 90.0)
           (-45.0 45.0)
  end
  begin
     id 22 
     name lfingers
     direction 1 -4.48923e-011 -5.30819e-026   
     length 0.590368   
     axis 3.38708e-014 90 90   XYZ
    dof rx
    limits (0.0 90.0)
  end
  begin
     id 23
     name lthumb
     direction 0.707107 -6.34914e-011 0.707107   
     length 0.847654   
     axis -90 45 2.85299e-015   XYZ
    dof rx rz
    limits (-45.0 45.0)
           (-45.0 45.0)
  end
  begin
     id 24 
     name rclavicle
     direction -0.963658 0.245183 -0.106063   
     length 3.43472  
     axis 0 0 0   XYZ 
    dof ry rz
    limits (-10.0 20.0)
           (-20.0 0.0)
  end
  begin
     id 25 
     name rhumerus
     direction -1 -4.48963e-011 -1.64784e-027  
     length 5.10161   
     axis -180 30 90   XYZ
    dof rx ry rz
    limits (-90.0 60.0)
           (-90.0 90.0)
           (-90.0 90.0)
  end
  begin
     id 26 
     name rradius
     direction -1 -4.48969e-011 -2.87943e-027   
     length 3.23267   
     axis -180 30 90   XYZ
    dof rx
    limits (-10.0 170.0)
  end
  begin
     id 27 
     name rwrist
     direction -1 -4.48982e-011 -1.32705e-026   
     length 1.61633   
     axis 9.60836e-015 -90 -90   XYZ
    dof ry
    limits (-180.0 0.0)
  end
  begin
     id 28
     name rhand
     direction -1 -4.48963e-011 -2.65409e-026   
     length 0.702   
     axis 1.69354e-014 -90 -90   XYZ
    dof rx rz
    limits (-90.0 90.0)
           (-45.0 45.0)
  end
  begin
     id 29
     name rfingers
     direction -1 -4.48934e-011 -5.30819e-026   
     length 0.565971   
     axis 3.38708e-014 -90 -90   XYZ
    dof rx
    limits (0.0 90.0)
  end
  begin
     id 30
     name rthumb
     direction -0.707107 -6.34908e-011 0.707107   
     length 0.812624   
     axis -90 -45 -2.85299e-015   XYZ
    dof rx rz
    limits (-45.0 45.0)
           (-45.0 45.0)
  end
:hierarchy
  begin
    root lhipjoint rhipjoint lowerback
    lhipjoint lfemur
    lfemur ltibia
    ltibia lfoot
    lfoot ltoes
    rhipjoint rfemur
    rfemur rtibia
    rtibia rfoot
    rfoot rtoes
    lowerback upperback
    upperback thorax
    thorax lowerneck lclavicle rclavicle
    lowerneck upperneck
    upperneck head
    lclavicle lhumerus
    lhumerus lradius
    lradius lwrist
    lwrist lhand lthumb
    lhand lfingers
    rclavicle rhumerus
    rhumerus rradius
    rradius rwrist
    rwrist rhand rthumb
    rhand rfingers
  end

#!OML:ASF \\sashay\E\basketball\basketball\Project 1\Capture day 1\Session 1\Subject.ASF
:FULLY-SPECIFIED
:DEGREES
120
root 15.2475 13.6735 -4.46212 -191.042 50.6411 155.915
lowerback 19.3749 3.48931 -13.2883
upperback 7.55453 3.05574 -3.64782
thorax -2.88998 1.81207 2.86962
lowerneck 1.33453 -15.1223 -19.0624
upperneck -19.6347 -16.1758 41.8317
head 0.654595 -8.7683 17.1868
rclavicle -4.92986e-014 1.15295e-014
rhumerus -48.3744 -24.411 -40.1279
rradius 38.9676
rwrist -13.6097
rhand -38.6253 47.417
rfingers 7.12502
rthumb -11.6423 17.7605
lclavicle -4.92986e-014 1.15295e-014
lhumerus 6.91125 22.2263 56.4598
lradius 91.2287
lwrist 55.6934
lhand 14.2557 45.849
lfingers 7.12502
lthumb 39.1506 71.3258
rfemur -43.1204 -17.0811 26.908
rtibia 105.641
rfoot -13.3045 -6.85907
rtoes 0.469077
lfemur -17.6699 6.13586 -17.7226
ltibia 52.5417
lfoot -29.8564 -0.154
ltoes -58.7798
121
root 15.6665 13.6947 -4.6995 -191.448 51.8313 154.714
lowerback 18.8424 3.25297 -13.3728
upperback 7.22283 2.71882 -3.74746
thorax -2.93461 1.63352 2.90119
lowerneck 1.01249 -14.7285 -19.1447
upperneck -18.7367 -15.8539 41.4632
head 0.791146 -8.53269 17.0491
rclavicle -4.81059e-014 4.41302e-014
rhumerus -49.2474 -24.8311 -40.4253
rradius 40.5475
rwrist -15.9248
rhand -38.1434 46.1632
rfingers 7.12502
rthumb -11.1776 16.4809
lclavicle -4.81059e-014 4.41302e-014
lhumerus 5.61566 21.9598 57.0018
lradius 95.1456
lwrist 52.5246
lhand 14.8324 45.2813
lfingers 7.12502
lthumb 39.6938 70.599
rfemur -47.1185 -16.41 26.873
rtibia 105.699
rfoot -13.8141 -7.42738
rtoes -0.0703174
lfemur -15.0574 7.08069 -17.7272
ltibia 50.5319
lfoot -29.0012 -1.16252
ltoes -58.7352
122
root 16.1075 13.7342 -4.93246 -191.963 53.0135 153.433
lowerback 18.189 3.00542 -13.5666
upperback 6.9756 2.39375 -3.84123
thorax -2.82212 1.45391 3.0005
lowerneck 0.634811 -14.2912 -18.8578
upperneck -17.9745 -15.3851 40.8366
head 0.772148 -8.2289 16.7559
rclavicle -7.55382e-014 2.54444e-014
rhumerus -49.8984 -25.3018 -40.9509
rradius 41.9435
rwrist -17.7755
rhand -37.8086 44.9877
rfingers 7.12502
rthumb -10.8547 15.2883
lclavicle -7.55382e-014 2.54444e-014
lhumerus 4.7422 21.5438 57.9332
lradius 99.1168
lwrist 48.5822
lhand 15.5281 44.7075
lfingers 7.12502
lthumb 40.3485 69.8275
rfemur -50.8356 -15.4226 26.7549
rtibia 105.139
rfoot -14.0003 -8.36793
rtoes -2.98278
lfemur -12.2561 7.81088 -17.7203
ltibia 48.2255
lfoot -27.2969 -3.22498
ltoes -57.295
123
root 16.5586 13.7822 -5.16094 -192.511 54.1424 152.37
lowerback 17.7929 2.74744 -13.5411
upperback 6.764 2.06272 -3.94181
thorax -2.7986 1.28219 2.96016
lowerneck 0.254798 -13.8793 -18.7923
upperneck -17.1763 -14.9731 40.4375
head 0.84935 -7.94867 16.5958
rclavicle -2.62396e-014 1.98785e-014
rhumerus -50.3512 -25.8933 -41.6428
rradius 42.7668
rwrist -18.7077
rhand -37.8009 44.4254
rfingers 7.12502
rthumb -10.8472 14.7256
lclavicle -2.62396e-014 1.98785e-014
lhumerus 4.46934 21.0746 59.5692
lradius 102.857
lwrist 43.8478
lhand 15.075 44.5314
lfingers 7.12502
lthumb 39.9223 69.7808
rfemur -54.1692 -14.3675 26.6266
rtibia 104.032
rfoot -14.1126 -9.16894
rtoes -3.97986
lfemur -9.13329 8.25822 -17.5915
ltibia 45.5878
lfoot -24.9642 -4.7688
ltoes -56.2477
124
root 17.0155 13.8368 -5.38773 -193.357 55.1542 151.277
lowerback 17.7234 2.49497 -13.417
upperback 6.62795 1.72409 -4.06329
thorax -2.86011 1.11798 2.83265
lowerneck -0.273842 -13.5461 -18.8446
upperneck -16.2312 -14.7197 40.0695
head 1.06262 -7.72467 16.4174
rclavicle -2.32578e-014 2.5842e-014
rhumerus -50.5133 -26.6113 -42.4745
rradius 42.7536
rwrist -18.5251
rhand -38.087 45.5051
rfingers 7.12502
rthumb -11.1232 15.8199
lclavicle -2.32578e-014 2.5842e-014
lhumerus 4.37752 19.5517 60.6374
lradius 106.642
lwrist 39.3522
lhand 12.1886 44.6918
lfingers 7.12502
lthumb 37.1991 70.7046
rfemur -56.9024 -13.3785 26.2236
rtibia 102.345
rfoot -14.1713 -9.48952
rtoes -4.02048
lfemur -5.66425 8.5458 -17.5121
ltibia 42.6363
lfoot -22.2231 -5.68787
ltoes -56.2023
125
root 17.4885 13.9078 -5.61586 -194.126 56.1627 150.418
lowerback 17.6586 2.21912 -13.1356
upperback 6.55801 1.39208 -4.14789
thorax -2.85613 0.953369 2.6581
lowerneck -0.933129 -13.2739 -18.8769
upperneck -15.182 -14.5792 39.6088
head 1.34734 -7.54066 16.1568
rclavicle 1.19271e-015 5.725e-014
rhumerus -50.4242 -27.4395 -43.396
rradius 42.955
rwrist -18.3431
rhand -38.4146 44.7798
rfingers 7.12502
rthumb -11.4392 15.1119
lclavicle 1.19271e-015 5.725e-014
lhumerus 4.14557 17.4912 61.7076
lradius 110.685
lwrist 34.3887
lhand 10.5734 44.9779
lfingers 7.12502
lthumb 35.67 71.3748
rfemur -58.9869 -12.2596 25.7805
rtibia 99.9504
rfoot -14.4726 -9.4477
rtoes -2.12417
lfemur -2.00052 8.69164 -17.2402
ltibia 39.4471
lfoot -18.7755 -7.04562
ltoes -55.1762
126
root 17.9747 13.9817 -5.84134 -194.8 57.31 149.627
lowerback 17.4297 1.92364 -12.9273
upperback 6.51069 1.05034 -4.18348
thorax -2.74334 0.774149 2.58175
lowerneck -1.31121 -12.7864 -18.7363
upperneck -14.293 -14.0983 38.8956
head 1.37897 -7.22499 15.8587
rclavicle -4.23411e-014 -6.2816e-014
rhumerus -49.9862 -28.0855 -44.7119
rradius 43.034
rwrist -17.8359
rhand -38.8679 43.9974
rfingers 7.12502
rthumb -11.8762 14.3542
lclavicle -4.23411e-014 -6.2816e-014
lhumerus 3.44395 14.6917 61.9665
lradius 114.454
lwrist 29.152
lhand 10.0298 43.9186
lfingers 7.12502
lthumb 35.1546 70.4384
rfemur -60.8135 -10.8412 25.3383
rtibia 97.0148
rfoot -14.8979 -9.22042
rtoes 0.548973
lfemur 1.66004 8.63245 -16.9382
ltibia 36.0037
lfoot -14.8142 -7.87339
ltoes -54.0661
